<svg width="141" height="54" viewBox="0 0 141 54" fill="none" xmlns="http://www.w3.org/2000/svg">
<path d="M127.454 6.13501L121.196 18.5224L115.037 6.13501H105.699V30.3152H113.745V19.8107L119.01 30.3152H123.381L128.746 19.6125V30.3152H140.865V6.13501H127.454Z" fill="white"/>
<path d="M25.4311 16.4414C22.1529 14.3603 17.6825 13.3693 14.5037 12.3784C12.8149 11.8829 9.53665 10.991 10.4307 8.41438C11.4241 5.4414 21.5568 7.52249 25.6298 8.90988V1.08104C20.7621 0.189143 2.68218 -2.78383 1.19208 7.62159C0.0993402 15.5495 10.7287 17.7297 16.1924 19.4144C17.8812 19.9099 21.1595 21.3964 20.2654 23.973C19.272 26.9459 8.24523 24.964 4.47031 23.6757C3.47691 23.2793 1.9868 22.8829 0 22.0901V30.4144H28.1133C29.0073 29.027 29.6034 27.3423 29.802 25.2613C30.2987 21.2973 28.3119 18.2252 25.4311 16.4414Z" fill="white"/>
<path d="M44.6047 21.9909V6.13501H36.5581V30.3152H58.0156L62.1879 21.9909H44.6047Z" fill="white"/>
<path d="M89.1091 6.13501H76.8903L64.7708 30.3152H72.8173L80.9632 14.1621L84.8375 21.9909H80.0691L77.983 26.1531H87.0229V26.3513L89.1091 30.3152H101.229L89.1091 6.13501Z" fill="white"/>
<path d="M112.454 42.1082H110.268L104.507 53.6037H106.692L112.454 42.1082Z" fill="white"/>
<path d="M0.100342 51.2252L1.59044 50.5315C1.68978 51.027 1.9878 51.4234 2.38517 51.7207C2.78253 52.018 3.27923 52.1171 3.77593 52.1171C4.37197 52.1171 4.76933 52.018 5.06735 51.6216C5.36537 51.3243 5.56405 50.9279 5.56405 50.4325C5.56405 49.7388 4.96801 49.1442 3.87527 48.6487C3.77593 48.5496 3.67659 48.5496 3.57725 48.5496C2.28583 47.955 1.4911 47.3604 1.09374 46.8649C0.696383 46.3694 0.497702 45.7748 0.497702 45.0811C0.497702 44.1892 0.795723 43.3964 1.4911 42.8018C2.08714 42.2072 2.98121 41.9099 3.97461 41.9099C4.76933 41.9099 5.56405 42.1081 6.06075 42.4054C6.65679 42.7027 7.05415 43.1982 7.25283 43.7928L5.76273 44.5856C5.56405 44.1892 5.26603 43.991 4.96801 43.7928C4.66999 43.5946 4.37197 43.5946 3.97461 43.5946C3.47791 43.5946 3.08055 43.6937 2.78253 43.991C2.48451 44.2883 2.38517 44.5856 2.38517 45.0811C2.38517 45.7748 2.98121 46.3694 4.27263 46.964C4.37197 46.964 4.47131 47.0631 4.47131 47.0631C5.56405 47.5586 6.35877 48.0541 6.75613 48.5496C7.15349 49.0451 7.35217 49.6397 7.35217 50.4325C7.35217 51.5225 7.05415 52.4144 6.35877 53.009C5.66339 53.6036 4.76933 54 3.57725 54C2.58385 54 1.78912 53.8018 1.19308 53.3063C0.696383 52.7117 0.299022 52.1171 0.100342 51.2252Z" fill="white"/>
<path d="M29.803 43.7927V53.6036H27.9155V43.7927H24.9353V42.2072H32.8825V43.7927H29.803Z" fill="white"/>
<path d="M50.168 42.009H51.9561V48.946C51.9561 49.937 52.1548 50.7298 52.6515 51.2253C53.1482 51.7208 53.8436 52.0181 54.837 52.0181C55.731 52.0181 56.5257 51.7208 56.9231 51.2253C57.4198 50.7298 57.6185 49.937 57.6185 48.946V42.009H59.5059V49.1442C59.5059 50.7298 59.1086 51.8199 58.3139 52.6126C57.5191 53.4054 56.3271 53.8018 54.837 53.8018C53.2475 53.8018 52.0554 53.4054 51.36 52.6126C50.5653 51.8199 50.168 50.7298 50.168 49.1442V42.009Z" fill="white"/>
<path d="M77.5854 53.6036V42.2072H80.069C81.6584 42.2072 82.8505 42.3063 83.5459 42.4054C84.2412 42.6036 84.8373 42.8017 85.334 43.1981C86.0294 43.6936 86.5261 44.3873 86.8241 45.1801C87.1221 45.9729 87.3208 46.8648 87.3208 47.8558C87.3208 48.8468 87.1221 49.7387 86.8241 50.5315C86.5261 51.3243 86.0294 51.9189 85.334 52.5135C84.8373 52.9099 84.2412 53.2072 83.6452 53.3063C83.0492 53.5045 82.0558 53.5045 80.665 53.5045H80.1683H77.5854V53.6036ZM79.4729 51.9189H81.0624C81.9564 51.9189 82.5525 51.8198 82.9498 51.7207C83.3472 51.6216 83.7445 51.4234 84.0426 51.1261C84.4399 50.7297 84.8373 50.3333 85.036 49.7387C85.2346 49.1441 85.334 48.5495 85.334 47.8558C85.334 47.1621 85.2346 46.4684 85.036 45.9729C84.8373 45.3783 84.5393 44.9819 84.0426 44.5855C83.7445 44.2882 83.3472 44.09 82.8505 43.9909C82.3538 43.8918 81.6584 43.7927 80.7643 43.7927H80.069H79.3736V51.9189H79.4729Z" fill="white"/>
<path d="M140.865 47.8559C140.865 48.6487 140.667 49.4415 140.369 50.1351C140.07 50.8288 139.574 51.5225 139.077 52.018C138.481 52.6126 137.786 53.009 137.09 53.3063C136.395 53.6036 135.6 53.8018 134.805 53.8018C134.011 53.8018 133.216 53.6036 132.421 53.3063C131.627 53.009 131.031 52.6126 130.435 52.018C129.838 51.4234 129.441 50.8288 129.143 50.1351C128.845 49.4415 128.746 48.6487 128.746 47.8559C128.746 47.0631 128.845 46.2703 129.143 45.5766C129.441 44.8829 129.938 44.1892 130.435 43.5946C131.031 43 131.726 42.6036 132.421 42.3063C133.117 42.009 133.911 41.9099 134.805 41.9099C135.6 41.9099 136.395 42.009 137.19 42.3063C137.885 42.6036 138.58 43 139.176 43.5946C139.772 44.1892 140.17 44.7838 140.468 45.5766C140.766 46.2703 140.865 47.0631 140.865 47.8559ZM138.978 47.8559C138.978 47.2613 138.878 46.7658 138.68 46.1712C138.481 45.6757 138.183 45.1802 137.786 44.7838C137.388 44.3874 136.991 44.0901 136.494 43.8919C135.998 43.6937 135.402 43.5946 134.905 43.5946C134.309 43.5946 133.812 43.6937 133.315 43.8919C132.819 44.0901 132.322 44.3874 131.925 44.7838C131.527 45.1802 131.229 45.6757 131.031 46.1712C130.832 46.6667 130.733 47.2613 130.733 47.8559C130.733 48.4505 130.832 48.946 131.031 49.4415C131.229 49.937 131.527 50.4324 131.925 50.8288C132.322 51.2252 132.719 51.5225 133.315 51.7207C133.812 51.9189 134.309 52.018 134.905 52.018C135.501 52.018 135.998 51.9189 136.494 51.7207C136.991 51.5225 137.488 51.2252 137.885 50.8288C138.282 50.4324 138.58 49.937 138.779 49.4415C138.878 48.946 138.978 48.4505 138.978 47.8559Z" fill="white"/>
</svg>
