<svg width="200" height="24" viewBox="0 0 200 24" fill="none" xmlns="http://www.w3.org/2000/svg">
<path d="M188.669 4.83569L183.779 14.6001L178.889 4.83569H171.579V23.8742H177.932V15.607L182.065 23.8742H185.493L189.732 15.4215V23.8742H199.261V4.83569H188.669Z" fill="white"/>
<path d="M108.429 12.9572C105.838 11.3541 102.37 10.5062 99.8314 9.72448C98.5024 9.31377 95.9111 8.59833 96.6021 6.61101C97.4127 4.27922 105.4 5.93532 108.576 6.98198V0.847784C104.775 0.158846 90.5157 -2.19944 89.3595 5.97507C88.4824 12.2153 96.828 13.9111 101.187 15.2492C102.502 15.6599 105.107 16.8126 104.416 18.7999C103.619 21.1052 94.9542 19.5683 92.0173 18.5747C91.1934 18.2965 90.1037 17.952 88.4824 17.316V23.8742H110.609C111.3 22.7878 111.765 21.4497 111.938 19.8068C112.243 16.7728 110.675 14.3483 108.429 12.9572Z" fill="white"/>
<path d="M123.513 17.3161V4.83569H117.16V23.8742H134.024L137.32 17.3161H123.513Z" fill="white"/>
<path d="M158.49 4.83569H148.882L139.353 23.8742H145.705L152.098 11.1024L155.128 17.3161H151.407L149.759 20.6018H156.855L156.908 20.7078L158.49 23.8742H168.031L158.49 4.83569Z" fill="white"/>
<path d="M59.3527 11.3806H58.2231L55.2463 17.3426H56.3759L59.3527 11.3806Z" fill="white"/>
<path d="M1 16.1238L1.77077 15.7661C1.83722 16.031 1.9834 16.2298 2.16945 16.3755C2.36878 16.508 2.60799 16.5742 2.91364 16.5742C3.206 16.5742 3.43192 16.4948 3.60467 16.3358C3.77743 16.1768 3.85717 15.9648 3.85717 15.6998C3.85717 15.3554 3.56481 15.0374 2.99337 14.7724C2.91364 14.7327 2.84719 14.7062 2.80732 14.6797C2.15616 14.3617 1.71761 14.0835 1.50499 13.8185C1.27907 13.5668 1.17276 13.2488 1.17276 12.8778C1.17276 12.3876 1.33223 12.0034 1.66446 11.6987C1.9834 11.4072 2.42194 11.2615 2.95351 11.2615C3.39205 11.2615 3.75085 11.341 4.04322 11.5132C4.34887 11.6854 4.5482 11.9239 4.65452 12.2286L3.91032 12.6261C3.79072 12.4406 3.65783 12.3081 3.51165 12.2154C3.36547 12.1359 3.206 12.0829 3.01995 12.0829C2.76746 12.0829 2.55483 12.1491 2.40865 12.2816C2.24918 12.4141 2.18273 12.5996 2.18273 12.8248C2.18273 13.1826 2.51496 13.5138 3.17942 13.8185C3.23258 13.845 3.27245 13.8582 3.29902 13.8715C3.88375 14.1497 4.28242 14.4014 4.50834 14.6664C4.72096 14.9181 4.82728 15.2494 4.82728 15.6336C4.82728 16.19 4.65452 16.6405 4.29571 16.9717C3.9369 17.3029 3.45849 17.4619 2.86048 17.4619C2.35549 17.4619 1.94353 17.3427 1.6113 17.1174C1.30565 16.879 1.10631 16.5477 1 16.1238Z" fill="white"/>
<path d="M16.4154 12.2153V17.3161H15.4453V12.2153H13.8772V11.4071H17.9835V12.2153H16.4154V12.2153Z" fill="white"/>
<path d="M27.0069 11.3278H27.9637V14.9182C27.9637 15.4481 28.0833 15.8589 28.3358 16.1238C28.5883 16.3888 28.9604 16.5213 29.4521 16.5213C29.9438 16.5213 30.3159 16.3888 30.5551 16.1238C30.8076 15.8589 30.9272 15.4614 30.9272 14.9182V11.3278H31.8973V15.0109C31.8973 15.8059 31.698 16.4021 31.286 16.7995C30.874 17.197 30.2627 17.3957 29.4521 17.3957C28.6282 17.3957 28.0302 17.197 27.6182 16.7995C27.2195 16.4021 27.0202 15.8059 27.0202 15.0109V11.3278H27.0069Z" fill="white"/>
<path d="M41.2396 17.3161V11.4071H42.5419C43.3924 11.4071 43.9771 11.4469 44.3226 11.5263C44.6682 11.6191 44.9738 11.7516 45.2396 11.9503C45.5851 12.202 45.8376 12.5465 46.0104 12.9572C46.1831 13.3679 46.2762 13.8316 46.2762 14.3616C46.2762 14.8783 46.1831 15.3552 46.0104 15.7527C45.8376 16.1502 45.5718 16.4946 45.2396 16.7596C44.9738 16.9584 44.6815 17.1041 44.3492 17.1836C44.017 17.2631 43.512 17.3161 42.8077 17.3161H42.5419H41.2396ZM42.1964 16.4549H43.007C43.4589 16.4549 43.7911 16.4284 44.0037 16.3622C44.2296 16.3092 44.429 16.2032 44.5884 16.0707C44.8143 15.8852 44.9738 15.6467 45.0934 15.3552C45.213 15.077 45.2662 14.7458 45.2662 14.3616C45.2662 13.9906 45.213 13.6594 45.0934 13.3679C44.9871 13.0765 44.8143 12.838 44.5884 12.6525C44.4157 12.5068 44.2163 12.414 43.9904 12.3478C43.7512 12.2815 43.3924 12.255 42.8874 12.255H42.5419H42.1964V16.4549Z" fill="white"/>
<path d="M74.1169 14.3617C74.1169 14.7724 74.0372 15.1831 73.8777 15.5541C73.7182 15.9251 73.4923 16.2695 73.1867 16.561C72.881 16.8525 72.5355 17.0777 72.1501 17.2367C71.7647 17.3957 71.3661 17.4752 70.9408 17.4752C70.5156 17.4752 70.1036 17.3957 69.7182 17.2367C69.3328 17.0777 68.9873 16.8525 68.6949 16.561C68.3893 16.2695 68.1634 15.9383 68.0039 15.5673C67.8444 15.1964 67.778 14.7857 67.778 14.3749C67.778 13.951 67.8577 13.5535 68.0039 13.1826C68.1634 12.8116 68.3893 12.4671 68.6949 12.1756C69.0006 11.8842 69.3461 11.6589 69.7182 11.5C70.1036 11.341 70.5156 11.2615 70.9408 11.2615C71.3661 11.2615 71.778 11.341 72.1501 11.4867C72.5355 11.6324 72.881 11.8577 73.1734 12.1624C73.479 12.4671 73.705 12.7983 73.8644 13.1693C74.0372 13.5535 74.1169 13.9377 74.1169 14.3617ZM73.1069 14.3617C73.1069 14.057 73.0538 13.7787 72.9475 13.5138C72.8412 13.2355 72.6817 12.9971 72.4691 12.7983C72.2697 12.5864 72.0438 12.4274 71.778 12.3214C71.5122 12.2154 71.2332 12.1491 70.9408 12.1491C70.6484 12.1491 70.3694 12.2021 70.1036 12.3081C69.8378 12.4141 69.6119 12.5864 69.3993 12.7983C69.1866 13.0103 69.0272 13.2488 68.9209 13.5138C68.8278 13.7787 68.7747 14.057 68.7747 14.3617C68.7747 14.6532 68.8278 14.9446 68.9341 15.2096C69.0405 15.4746 69.1999 15.7131 69.4126 15.9251C69.6119 16.137 69.8511 16.296 70.1169 16.402C70.3827 16.508 70.6617 16.561 70.9541 16.561C71.2465 16.561 71.5255 16.508 71.778 16.402C72.0438 16.296 72.2697 16.137 72.4824 15.9251C72.695 15.7131 72.8412 15.4746 72.9608 15.2096C73.0538 14.9446 73.1069 14.6532 73.1069 14.3617Z" fill="white"/>
</svg>
