<svg width="141" height="23" viewBox="0 0 141 23" fill="none" xmlns="http://www.w3.org/2000/svg">
<path d="M112.454 11.1082H110.268L104.507 22.6037H106.692L112.454 11.1082Z" fill="#17293A"/>
<path d="M0.10022 20.2252L1.59032 19.5315C1.68966 20.027 1.98768 20.4234 2.38504 20.7207C2.7824 21.018 3.2791 21.1171 3.77581 21.1171C4.37185 21.1171 4.76921 21.018 5.06723 20.6216C5.36525 20.3243 5.56393 19.9279 5.56393 19.4325C5.56393 18.7388 4.96789 18.1442 3.87515 17.6487C3.77581 17.5496 3.67647 17.5496 3.57713 17.5496C2.2857 16.955 1.49098 16.3604 1.09362 15.8649C0.696261 15.3694 0.49758 14.7748 0.49758 14.0811C0.49758 13.1892 0.795601 12.3964 1.49098 11.8018C2.08702 11.2072 2.98108 10.9099 3.97449 10.9099C4.76921 10.9099 5.56393 11.1081 6.06063 11.4054C6.65667 11.7027 7.05403 12.1982 7.25271 12.7928L5.76261 13.5856C5.56393 13.1892 5.26591 12.991 4.96789 12.7928C4.66987 12.5946 4.37185 12.5946 3.97449 12.5946C3.47779 12.5946 3.08042 12.6937 2.7824 12.991C2.48438 13.2883 2.38504 13.5856 2.38504 14.0811C2.38504 14.7748 2.98108 15.3694 4.27251 15.964C4.37185 15.964 4.47119 16.0631 4.47119 16.0631C5.56393 16.5586 6.35865 17.0541 6.75601 17.5496C7.15337 18.0451 7.35205 18.6397 7.35205 19.4325C7.35205 20.5225 7.05403 21.4144 6.35865 22.009C5.66327 22.6036 4.76921 23 3.57713 23C2.58372 23 1.789 22.8018 1.19296 22.3063C0.696261 21.7117 0.2989 21.1171 0.10022 20.2252Z" fill="#17293A"/>
<path d="M29.8031 12.7927V22.6036H27.9156V12.7927H24.9354V11.2072H32.8826V12.7927H29.8031Z" fill="#17293A"/>
<path d="M50.1681 11.009H51.9562V17.946C51.9562 18.937 52.1549 19.7298 52.6516 20.2253C53.1483 20.7208 53.8437 21.0181 54.8371 21.0181C55.7311 21.0181 56.5259 20.7208 56.9232 20.2253C57.4199 19.7298 57.6186 18.937 57.6186 17.946V11.009H59.5061V18.1442C59.5061 19.7298 59.1087 20.8199 58.314 21.6126C57.5193 22.4054 56.3272 22.8018 54.8371 22.8018C53.2476 22.8018 52.0556 22.4054 51.3602 21.6126C50.5654 20.8199 50.1681 19.7298 50.1681 18.1442V11.009Z" fill="#17293A"/>
<path d="M77.5854 22.6036V11.2072H80.069C81.6584 11.2072 82.8505 11.3063 83.5459 11.4054C84.2412 11.6036 84.8373 11.8017 85.334 12.1981C86.0294 12.6936 86.5261 13.3873 86.8241 14.1801C87.1221 14.9729 87.3208 15.8648 87.3208 16.8558C87.3208 17.8468 87.1221 18.7387 86.8241 19.5315C86.5261 20.3243 86.0294 20.9189 85.334 21.5135C84.8373 21.9099 84.2412 22.2072 83.6452 22.3063C83.0492 22.5045 82.0558 22.5045 80.665 22.5045H80.1683H77.5854V22.6036ZM79.4729 20.9189H81.0624C81.9564 20.9189 82.5525 20.8198 82.9498 20.7207C83.3472 20.6216 83.7445 20.4234 84.0426 20.1261C84.4399 19.7297 84.8373 19.3333 85.036 18.7387C85.2346 18.1441 85.334 17.5495 85.334 16.8558C85.334 16.1621 85.2346 15.4684 85.036 14.9729C84.8373 14.3783 84.5393 13.9819 84.0426 13.5855C83.7445 13.2882 83.3472 13.09 82.8505 12.9909C82.3538 12.8918 81.6584 12.7927 80.7643 12.7927H80.069H79.3736V20.9189H79.4729Z" fill="#17293A"/>
<path d="M140.865 16.8559C140.865 17.6487 140.667 18.4415 140.369 19.1351C140.07 19.8288 139.574 20.5225 139.077 21.018C138.481 21.6126 137.786 22.009 137.09 22.3063C136.395 22.6036 135.6 22.8018 134.805 22.8018C134.011 22.8018 133.216 22.6036 132.421 22.3063C131.627 22.009 131.031 21.6126 130.435 21.018C129.838 20.4234 129.441 19.8288 129.143 19.1351C128.845 18.4415 128.746 17.6487 128.746 16.8559C128.746 16.0631 128.845 15.2703 129.143 14.5766C129.441 13.8829 129.938 13.1892 130.435 12.5946C131.031 12 131.726 11.6036 132.421 11.3063C133.117 11.009 133.911 10.9099 134.805 10.9099C135.6 10.9099 136.395 11.009 137.19 11.3063C137.885 11.6036 138.58 12 139.176 12.5946C139.772 13.1892 140.17 13.7838 140.468 14.5766C140.766 15.2703 140.865 16.0631 140.865 16.8559ZM138.978 16.8559C138.978 16.2613 138.878 15.7658 138.68 15.1712C138.481 14.6757 138.183 14.1802 137.786 13.7838C137.388 13.3874 136.991 13.0901 136.494 12.8919C135.998 12.6937 135.402 12.5946 134.905 12.5946C134.309 12.5946 133.812 12.6937 133.315 12.8919C132.819 13.0901 132.322 13.3874 131.925 13.7838C131.527 14.1802 131.229 14.6757 131.031 15.1712C130.832 15.6667 130.733 16.2613 130.733 16.8559C130.733 17.4505 130.832 17.946 131.031 18.4415C131.229 18.937 131.527 19.4324 131.925 19.8288C132.322 20.2252 132.719 20.5225 133.315 20.7207C133.812 20.9189 134.309 21.018 134.905 21.018C135.501 21.018 135.998 20.9189 136.494 20.7207C136.991 20.5225 137.488 20.2252 137.885 19.8288C138.282 19.4324 138.58 18.937 138.779 18.4415C138.878 17.946 138.978 17.4505 138.978 16.8559Z" fill="#17293A"/>
</svg>
