<svg width="33" height="31" viewBox="0 0 33 31" fill="none" xmlns="http://www.w3.org/2000/svg">
<path d="M25.4311 16.4414C22.1529 14.3603 17.6825 13.3693 14.5037 12.3784C12.8149 11.8829 9.53665 10.991 10.4307 8.41438C11.4241 5.4414 21.5568 7.52249 25.6298 8.90988V1.08104C20.7621 0.189143 2.68218 -2.78383 1.19208 7.62159C0.0993402 15.5495 10.7287 17.7297 16.1924 19.4144C17.8812 19.9099 21.1595 21.3964 20.2654 23.973C19.272 26.9459 8.24523 24.964 4.47031 23.6757C3.47691 23.2793 1.9868 22.8829 0 22.0901V30.4144H28.1133C29.0073 29.027 29.6034 27.3423 29.802 25.2613C30.2987 21.2973 28.3119 18.2252 25.4311 16.4414Z" fill="#17293A"/>
</svg>
